<svg width="119" height="52" viewBox="0 0 119 52" fill="none" xmlns="http://www.w3.org/2000/svg">
<path d="M80.504 34H77.768L69.536 21.544V34H66.8V17.296H69.536L77.768 29.728V17.296H80.504V34ZM96.2169 27.064C96.2169 27.56 96.1849 28.008 96.1209 28.408H86.0169C86.0969 29.464 86.4889 30.312 87.1929 30.952C87.8969 31.592 88.7609 31.912 89.7849 31.912C91.2569 31.912 92.2969 31.296 92.9049 30.064H95.8569C95.4569 31.28 94.7289 32.28 93.6729 33.064C92.6329 33.832 91.3369 34.216 89.7849 34.216C88.5209 34.216 87.3849 33.936 86.3769 33.376C85.3849 32.8 84.6009 32 84.0249 30.976C83.4649 29.936 83.1849 28.736 83.1849 27.376C83.1849 26.016 83.4569 24.824 84.0009 23.8C84.5609 22.76 85.3369 21.96 86.3289 21.4C87.3369 20.84 88.4889 20.56 89.7849 20.56C91.0329 20.56 92.1449 20.832 93.1209 21.376C94.0969 21.92 94.8569 22.688 95.4009 23.68C95.9449 24.656 96.2169 25.784 96.2169 27.064ZM93.3609 26.2C93.3449 25.192 92.9849 24.384 92.2809 23.776C91.5769 23.168 90.7049 22.864 89.6649 22.864C88.7209 22.864 87.9129 23.168 87.2409 23.776C86.5689 24.368 86.1689 25.176 86.0409 26.2H93.3609ZM103.709 34.216C102.669 34.216 101.733 34.032 100.901 33.664C100.085 33.28 99.4374 32.768 98.9574 32.128C98.4774 31.472 98.2214 30.744 98.1894 29.944H101.021C101.069 30.504 101.333 30.976 101.813 31.36C102.309 31.728 102.925 31.912 103.661 31.912C104.429 31.912 105.021 31.768 105.437 31.48C105.869 31.176 106.085 30.792 106.085 30.328C106.085 29.832 105.845 29.464 105.365 29.224C104.901 28.984 104.157 28.72 103.133 28.432C102.141 28.16 101.333 27.896 100.709 27.64C100.085 27.384 99.5414 26.992 99.0774 26.464C98.6294 25.936 98.4054 25.24 98.4054 24.376C98.4054 23.672 98.6134 23.032 99.0294 22.456C99.4454 21.864 100.037 21.4 100.805 21.064C101.589 20.728 102.485 20.56 103.493 20.56C104.997 20.56 106.205 20.944 107.117 21.712C108.045 22.464 108.541 23.496 108.605 24.808H105.869C105.821 24.216 105.581 23.744 105.149 23.392C104.717 23.04 104.133 22.864 103.397 22.864C102.677 22.864 102.125 23 101.741 23.272C101.357 23.544 101.165 23.904 101.165 24.352C101.165 24.704 101.293 25 101.549 25.24C101.805 25.48 102.117 25.672 102.485 25.816C102.853 25.944 103.397 26.112 104.117 26.32C105.077 26.576 105.861 26.84 106.469 27.112C107.093 27.368 107.629 27.752 108.077 28.264C108.525 28.776 108.757 29.456 108.773 30.304C108.773 31.056 108.565 31.728 108.149 32.32C107.733 32.912 107.141 33.376 106.373 33.712C105.621 34.048 104.733 34.216 103.709 34.216ZM114.922 23.008V30.328C114.922 30.824 115.034 31.184 115.258 31.408C115.498 31.616 115.898 31.72 116.458 31.72H118.138V34H115.978C114.746 34 113.802 33.712 113.146 33.136C112.49 32.56 112.162 31.624 112.162 30.328V23.008H110.602V20.776H112.162V17.488H114.922V20.776H118.138V23.008H114.922Z" fill="#FA7275"/>
<rect opacity="0.2" width="48" height="48" rx="24" fill="#FA7275"/>
<rect x="21" y="20" width="32" height="32" rx="16" fill="#FA7275"/>
</svg>
