<svg width="186" height="82" viewBox="0 0 186 82" fill="none" xmlns="http://www.w3.org/2000/svg">
<path d="M125.506 53.473H121.241L108.407 34.054V53.473H104.142V27.4314H108.407L121.241 46.8129V27.4314H125.506V53.473ZM150.003 42.6597C150.003 43.433 149.953 44.1314 149.853 44.755H134.101C134.226 46.4014 134.837 47.7234 135.934 48.7212C137.032 49.7189 138.379 50.2178 139.975 50.2178C142.27 50.2178 143.891 49.2575 144.839 47.3368H149.442C148.818 49.2325 147.683 50.7915 146.037 52.0138C144.415 53.2111 142.395 53.8098 139.975 53.8098C138.005 53.8098 136.234 53.3732 134.662 52.5002C133.116 51.6022 131.893 50.355 130.995 48.7586C130.122 47.1372 129.686 45.2664 129.686 43.1461C129.686 41.0259 130.11 39.1676 130.958 37.5711C131.831 35.9498 133.041 34.7026 134.587 33.8295C136.159 32.9565 137.955 32.52 139.975 32.52C141.921 32.52 143.654 32.944 145.176 33.7921C146.698 34.6402 147.883 35.8375 148.731 37.3841C149.579 38.9057 150.003 40.6642 150.003 42.6597ZM145.55 41.3128C145.525 39.7413 144.964 38.4816 143.867 37.5337C142.769 36.5859 141.41 36.1119 139.788 36.1119C138.316 36.1119 137.057 36.5859 136.009 37.5337C134.961 38.4567 134.338 39.7163 134.138 41.3128H145.55ZM161.684 53.8098C160.062 53.8098 158.603 53.5229 157.306 52.9492C156.034 52.3505 155.024 51.5523 154.275 50.5545C153.527 49.5318 153.128 48.3969 153.078 47.1497H157.493C157.568 48.0227 157.979 48.7586 158.728 49.3572C159.501 49.9309 160.461 50.2178 161.609 50.2178C162.806 50.2178 163.729 49.9933 164.378 49.5443C165.051 49.0704 165.388 48.4717 165.388 47.7483C165.388 46.9751 165.014 46.4014 164.265 46.0272C163.542 45.653 162.382 45.2415 160.786 44.7925C159.239 44.3684 157.979 43.9568 157.007 43.5577C156.034 43.1586 155.186 42.5475 154.462 41.7243C153.764 40.9012 153.415 39.8161 153.415 38.4691C153.415 37.3716 153.739 36.3738 154.387 35.4758C155.036 34.5529 155.959 33.8295 157.156 33.3057C158.379 32.7819 159.775 32.52 161.347 32.52C163.692 32.52 165.575 33.1186 166.997 34.3159C168.443 35.4883 169.217 37.0972 169.317 39.1426H165.051C164.976 38.2197 164.602 37.4838 163.929 36.9351C163.255 36.3863 162.345 36.1119 161.197 36.1119C160.075 36.1119 159.214 36.3239 158.615 36.748C158.017 37.172 157.717 37.7333 157.717 38.4317C157.717 38.9805 157.917 39.442 158.316 39.8161C158.715 40.1903 159.202 40.4896 159.775 40.7141C160.349 40.9137 161.197 41.1756 162.32 41.4998C163.816 41.8989 165.039 42.3105 165.986 42.7346C166.959 43.1337 167.795 43.7323 168.493 44.5305C169.192 45.3288 169.553 46.3889 169.578 47.7109C169.578 48.8833 169.254 49.9309 168.606 50.8539C167.957 51.7768 167.034 52.5002 165.837 53.024C164.664 53.5478 163.28 53.8098 161.684 53.8098ZM179.164 36.3364V47.7483C179.164 48.5216 179.338 49.0828 179.687 49.4321C180.062 49.7563 180.685 49.9185 181.558 49.9185H184.177V53.473H180.81C178.889 53.473 177.418 53.024 176.395 52.126C175.372 51.228 174.861 49.7688 174.861 47.7483V36.3364H172.429V32.8567H174.861V27.7307H179.164V32.8567H184.177V36.3364H179.164Z" fill="white"/>
<rect opacity="0.2" width="74.8323" height="74.8323" rx="37.4161" fill="white"/>
<rect x="32.739" y="31.1801" width="49.8882" height="49.8882" rx="24.9441" fill="white"/>
</svg>
